<?xml version="1.0" encoding="UTF-8"?>
<svg xmlns="http://www.w3.org/2000/svg" xmlns:xlink="http://www.w3.org/1999/xlink" width="32px" height="32px" viewBox="0 0 32 32" version="1.1">
<g id="surface1">
<path style=" stroke:none;fill-rule:nonzero;fill:rgb(0%,0%,0%);fill-opacity:1;" d="M 21.351562 1.824219 L 15.007812 8.175781 L 14.417969 7.585938 C 13.636719 6.804688 12.367188 6.804688 11.585938 7.585938 C 10.804688 8.367188 10.804688 9.636719 11.585938 10.417969 L 21.585938 20.417969 C 22.367188 21.199219 23.636719 21.199219 24.417969 20.417969 C 25.199219 19.636719 25.199219 18.367188 24.417969 17.585938 L 23.832031 17 L 30.175781 10.648438 C 32.613281 8.210938 32.613281 4.261719 30.175781 1.832031 C 27.738281 -0.601562 23.789062 -0.605469 21.355469 1.832031 Z M 3.460938 20.207031 C 2.523438 21.144531 2 22.417969 2 23.742188 L 2 26.394531 L 0.335938 28.886719 C -0.195312 29.679688 -0.0859375 30.738281 0.585938 31.414062 C 1.261719 32.085938 2.320312 32.195312 3.113281 31.664062 L 5.605469 30 L 8.257812 30 C 9.582031 30 10.855469 29.476562 11.792969 28.539062 L 19.335938 20.992188 L 16.507812 18.164062 L 8.960938 25.707031 C 8.773438 25.894531 8.519531 26 8.257812 26 L 6 26 L 6 23.742188 C 6 23.480469 6.105469 23.226562 6.292969 23.039062 L 13.835938 15.492188 L 11.007812 12.664062 Z M 3.460938 20.207031 "/>
</g>
</svg>
